<svg xmlns="http://www.w3.org/2000/svg" xmlns:xlink="http://www.w3.org/1999/xlink" viewBox="0 0 63.74 63.74"><defs><style>.cls-1{fill:url(#linear-gradient);}.cls-2{fill:url(#linear-gradient-2);}.cls-3{fill:url(#linear-gradient-3);}.cls-4{opacity:0.5;isolation:isolate;fill:url(#linear-gradient-4);}.cls-5{fill:url(#linear-gradient-5);}.cls-6{fill:url(#linear-gradient-6);}</style><linearGradient id="linear-gradient" x1="328.9" y1="-374" x2="296.94" y2="-342.02" gradientTransform="matrix(1, 0, 0, -1, -281.08, -326.16)" gradientUnits="userSpaceOnUse"><stop offset="0" stop-color="#1a1718" stop-opacity="0.4"/><stop offset="1" stop-color="#a3a6a8"/></linearGradient><linearGradient id="linear-gradient-2" x1="49.33" y1="-290.24" x2="17.93" y2="-258.83" gradientTransform="matrix(1, 0, 0, -1, -1.81, -242.67)" gradientUnits="userSpaceOnUse"><stop offset="0" stop-color="#e0e1e0"/><stop offset="1" stop-color="#f6f7f8"/></linearGradient><linearGradient id="linear-gradient-3" x1="6.57" y1="-274.45" x2="60.77" y2="-274.45" gradientTransform="matrix(1, 0, 0, -1, -1.81, -242.67)" gradientUnits="userSpaceOnUse"><stop offset="0" stop-color="#3ec2d2"/><stop offset="1" stop-color="#036e85"/></linearGradient><linearGradient id="linear-gradient-4" x1="47.64" y1="-288.25" x2="19.97" y2="-260.59" gradientTransform="matrix(1, 0, 0, -1, -1.81, -242.67)" gradientUnits="userSpaceOnUse"><stop offset="0" stop-color="#02a0b8"/><stop offset="0.91" stop-color="#35c1d5"/></linearGradient><linearGradient id="linear-gradient-5" x1="35.89" y1="-261.9" x2="25.64" y2="-290.07" gradientTransform="matrix(1, 0, 0, -1, -1.81, -242.67)" gradientUnits="userSpaceOnUse"><stop offset="0" stop-color="#fff"/><stop offset="1" stop-color="#dcf1f9"/></linearGradient><linearGradient id="linear-gradient-6" x1="36.98" y1="-255.86" x2="33.5" y2="-265.69" gradientTransform="matrix(1, 0, 0, -1, -1.81, -242.67)" gradientUnits="userSpaceOnUse"><stop offset="0" stop-color="#fff"/><stop offset="1" stop-color="#fff"/></linearGradient></defs><title>logo</title><g id="图层_2" data-name="图层 2"><g id="Layer_1" data-name="Layer 1"><g id="logo_icon" data-name="logo icon"><path id="boarder" class="cls-1" d="M32,63.74a31.87,31.87,0,1,0-.2,0Z"/><path id="outer_frame" data-name="outer frame" class="cls-2" d="M32,63.21a31.3,31.3,0,1,0-.2,0Z"/><path id="logo_bg" data-name="logo bg" class="cls-3" d="M31.89,58.91a27.15,27.15,0,1,0-27-27.3v.13h0a27.06,27.06,0,0,0,26.92,27.2h.08Z"/><path id="logo_highlight" data-name="logo highlight" class="cls-4" d="M32,58.66a26.9,26.9,0,1,0-26.9-27v.08A27,27,0,0,0,32,58.66Z"/><g id="ESG_man" data-name="ESG man"><path id="body" class="cls-5" d="M39.83,54.74a11.86,11.86,0,0,0,4.4-2.1c-.1-.4-.1-.7-.2-1.1-1.4-10.1-3.6-12.4-7.8-16.3l-.8-.7a21.25,21.25,0,0,0,9-1.4,19.72,19.72,0,0,0,10.1-10.2l-.4-.9c-4.7,3.7-8.9,5.8-13.2,6.2A23.89,23.89,0,0,1,30,26.54a21.4,21.4,0,0,1-12.7-12.6c-.1-.4-.3-.8-.4-1.2a14.34,14.34,0,0,0-4.5,4.7c.1.5.1,1.1.2,1.6a17.61,17.61,0,0,0,8.1,11.9c.9.5,1.7,1.1,2.6,1.6-6.2,2.1-8.6,5.3-11.2,11.4a5.18,5.18,0,0,0-.5,1.1,18.87,18.87,0,0,0,2.8,3.5l.7-.6c2.5-2.4,4.4-3.8,6.8-4.4,8-2.2,13.9,4.1,17.5,10.5A2.44,2.44,0,0,0,39.83,54.74Z"/><path id="head" class="cls-6" d="M33.43,24.74a6.78,6.78,0,1,0-6.8-6.7h0a6.57,6.57,0,0,0,6.4,6.7Z"/></g></g></g></g></svg>